<?xml version="1.0" encoding="UTF-8"?>
<svg width="60.0241095px" height="60px" viewBox="0 0 60.0241095 60" version="1.1" xmlns="http://www.w3.org/2000/svg" xmlns:xlink="http://www.w3.org/1999/xlink">
    <title>Financial markets</title>
    <g id="Financial-markets" stroke="none" stroke-width="1" fill="none" fill-rule="evenodd">
        <path d="M27.0210001,54.014696 C32.4951441,54.0197518 37.8402165,52.3519321 42.3400779,49.2345846 L51.6902371,58.5847438 C53.6036101,60.4785874 56.6875497,60.4707559 58.5912076,58.567098 C60.4948654,56.6634401 60.502697,53.5795005 58.6088533,51.6661276 L49.2586941,42.3159684 C56.3004339,32.0812422 55.4517533,18.3627716 47.2021726,9.07407504 C38.9525919,-0.214621488 25.4302071,-2.67719324 14.4355246,3.10684168 C3.4408421,8.89087659 -2.18963524,21.4292637 0.791899637,33.4894315 C3.77343452,45.5495994 14.5977068,54.0200492 27.0210001,54.014696 Z M57.1938238,53.081058 C58.3206726,54.2105835 58.3206726,56.0391974 57.1938238,57.1687229 C56.0503205,58.2622629 54.2486708,58.2622629 53.1051675,57.1687229 L43.9591239,48.0226793 C45.4632744,46.8086921 46.8338922,45.4380743 48.0477801,43.934023 L57.1938238,53.081058 Z M27.0210001,1.98048846 C40.8372162,1.98048846 52.0375013,13.1807735 52.0375013,26.9968905 C52.0375013,40.8130075 40.8372162,52.0133917 27.0210001,52.0133917 C13.2047839,52.0133917 2.00449887,40.8131066 2.00449887,26.9969897 C2.01996368,13.1871181 13.2111285,1.99595326 27.0210001,1.98048846 Z" id="Shape_156_" fill="#1E3464" fill-rule="nonzero"></path>
        <path d="M27.0210001,50.0120875 C39.7318793,50.0120875 50.0360979,39.7078688 50.0360979,26.9969897 C50.0360979,14.2861105 39.7318793,3.9817927 27.0210001,3.9817927 C14.3101209,3.9817927 4.00580311,14.2860113 4.00580311,26.9969897 C4.02017744,39.7019208 14.3159698,49.9977131 27.0210001,50.0120875 Z M17.0143798,45.4710857 C16.3243125,45.0909093 15.6561536,44.6723683 15.0130755,44.217247 L15.0130755,41.0061193 L17.0143798,41.0061193 L17.0143798,45.4710857 Z M25.0196958,47.9106586 C24.3422185,47.8456271 23.675844,47.7465929 23.0183916,47.6185126 L23.0183916,40.0054672 L25.0196958,40.0054672 L25.0196958,47.9106586 Z M33.0249128,47.1272076 C32.3704343,47.3226986 31.703366,47.4864669 31.0236085,47.6185126 L31.0236085,33.0009024 L33.0249128,33.0009024 L33.0249128,47.1272076 Z M41.0302288,42.6162433 C40.3961719,43.189928 39.7278148,43.7245542 39.0289246,44.217247 L39.0289246,29.998946 L41.0302288,29.998946 L41.0302288,42.6162433 Z M27.0210001,5.98308266 C35.2087215,5.97358013 42.654628,10.7260333 46.0937625,18.156475 C49.532897,25.5869168 48.3374478,34.3389053 43.0315331,40.5748892 L43.0315331,29.998946 C43.0315331,28.8936091 42.1354667,27.9976418 41.0302288,27.9976418 L39.0289246,27.9976418 C37.9235877,27.9976418 37.0276204,28.8937082 37.0276204,29.998946 L37.0276204,45.4710857 C36.3778012,45.8219187 35.7097415,46.1379558 35.0263161,46.4177102 L35.0263161,33.0009024 C35.0263161,31.8955654 34.1302497,30.9995981 33.0250119,30.9995981 L31.0237077,30.9995981 C29.9183707,30.9995981 29.0224034,31.8956645 29.0224034,33.0009024 L29.0224034,47.9106586 C28.3629683,47.972716 27.6964948,48.0106841 27.0210992,48.0106841 L27.0210992,40.0054672 C27.0210992,38.9001302 26.1250328,38.0041629 25.019795,38.0041629 L23.0184907,38.0041629 C21.9131538,38.0041629 21.0171865,38.9002294 21.0171865,40.0054672 L21.0171865,47.1261172 C20.3385195,46.9238851 19.670559,46.6874521 19.0158823,46.4176111 L19.0158823,41.0060202 C19.0158823,39.9006832 18.1198158,39.0047159 17.014578,39.0047159 L15.0132738,39.0047159 C13.9079369,39.0047159 13.0119696,39.9007824 13.0119696,41.0060202 L13.0119696,42.6150537 C12.2717408,41.9573039 11.5786003,41.2484012 10.937604,40.493699 L17.014578,34.4187076 L18.5976386,36.0027596 C19.3922916,36.7584532 20.6398849,36.7584532 21.4345379,36.0027596 L31.0238068,26.4134907 L32.1034682,27.4942426 C32.8981212,28.2499362 34.1457145,28.2499362 34.9403675,27.4942426 L40.0296759,22.4079082 L40.0296759,23.9949342 C40.0296759,24.5476026 40.4776595,24.9955863 41.030328,24.9955863 C41.5829964,24.9955863 42.0309801,24.5476026 42.0309801,23.9949342 L42.0309801,19.9923257 C42.0309801,19.4396572 41.5829964,18.9916736 41.030328,18.9916736 L37.0277195,18.9916736 C36.475051,18.9916736 36.0270674,19.4396572 36.0270674,19.9923257 C36.0270674,20.5449942 36.475051,20.9929778 37.0277195,20.9929778 L38.6137541,20.9929778 L33.5254371,26.0793122 L32.4427026,24.9955863 C31.6480496,24.2398927 30.4004562,24.2398927 29.6058032,24.9955863 L20.0165344,34.5848552 L18.4334738,33.0008032 C17.6388208,32.2451096 16.3912275,32.2451096 15.5965745,33.0008032 L9.70973827,38.8876394 C5.28273989,32.460923 4.78578437,24.1090367 8.41922021,17.2026139 C12.0526561,10.2961911 19.2170238,5.97506713 27.0210001,5.98308266 L27.0210001,5.98308266 Z" id="Shape_155_" fill="#1E3464" fill-rule="nonzero"></path>
        <path d="M17.0143798,23.9949342 C17.0143798,23.4422657 16.5663961,22.9942821 16.0137276,22.9942821 C15.4610592,22.9942821 15.0130755,23.4422657 15.0130755,23.9949342 C15.0160495,26.3715573 16.6877353,28.4194542 19.015684,28.8981692 L19.015684,28.9981948 C19.015684,29.5508632 19.4636676,29.9988469 20.0163361,29.9988469 C20.5690046,29.9988469 21.0169882,29.5508632 21.0169882,28.9981948 L21.0169882,28.8981692 C23.3488031,28.4247083 25.0246525,26.3744322 25.0246525,23.9949342 C25.0246525,21.6154362 23.3489022,19.5652592 21.0169882,19.0916991 L21.0169882,13.1718515 C22.21214,13.5943579 23.0130384,14.722099 23.0182925,15.9897172 C23.0182925,16.5423857 23.4662761,16.9903694 24.0189446,16.9903694 C24.5716131,16.9903694 25.0195967,16.5423857 25.0195967,15.9897172 C25.0166227,13.6130941 23.3449369,11.5651972 21.0169882,11.0864822 L21.0169882,10.9864566 C21.0169882,10.4337882 20.5690046,9.98580453 20.0163361,9.98580453 C19.4636676,9.98580453 19.015684,10.4337882 19.015684,10.9864566 L19.015684,11.0864822 C16.6838691,11.5599431 15.0080197,13.6102192 15.0080197,15.9897172 C15.0080197,18.3692152 16.68377,20.4193922 19.015684,20.8929523 L19.015684,26.8138903 C17.8202348,26.3911857 17.0192373,25.262949 17.0143798,23.9949342 L17.0143798,23.9949342 Z M23.0183916,23.9949342 C23.0131375,25.2625524 22.2122391,26.3902935 21.0170874,26.8127999 L21.0170874,21.1770685 C22.21214,21.599674 23.0131375,22.7273159 23.0183916,23.9949342 L23.0183916,23.9949342 Z M17.0143798,15.9897172 C17.0196338,14.722099 17.8205322,13.5943579 19.015684,13.1718515 L19.015684,18.8075829 C17.8205322,18.3850766 17.0196338,17.2573355 17.0143798,15.9897172 L17.0143798,15.9897172 Z" id="Shape_154_" fill="#1E3464" fill-rule="nonzero"></path>
    </g>
</svg>